<svg id="Capa_1" data-name="Capa 1" xmlns="http://www.w3.org/2000/svg" viewBox="0 0 1178.6 513.86"><defs><style>.cls-1{fill:#00a443;}.cls-2{fill:#ff9c1a;}.cls-3{fill:#0da9ff;}.cls-4{fill:none;}</style></defs><rect class="cls-1" x="404.97" y="141.84" width="19.52" height="132.63"/><path class="cls-1" d="M515.52,182.68a40.84,40.84,0,0,0-22.45-6.35q-10.8,0-18.38,4.45a37.5,37.5,0,0,0-12.41,11.75c-.63,1-1.23,1.95-1.8,2.95V141.84H441.91V274.48h18.57V257.33c.54,1,1.11,1.92,1.71,2.84a36.12,36.12,0,0,0,12.41,11.75q7.66,4.45,18.47,4.45a40.89,40.89,0,0,0,17.43-3.69,43,43,0,0,0,13.93-10.33,48.53,48.53,0,0,0,9.38-15.82,57.67,57.67,0,0,0,3.41-20.18q0-14.78-5.87-26A45.07,45.07,0,0,0,515.52,182.68Zm.57,57.6A31.19,31.19,0,0,1,510,250.79a25.63,25.63,0,0,1-9.19,6.63,29.46,29.46,0,0,1-11.75,2.28q-12.69,0-20.84-8.81t-8.15-24.54a41.45,41.45,0,0,1,2.18-14,31.45,31.45,0,0,1,6.06-10.42,24.77,24.77,0,0,1,9.19-6.54,30.2,30.2,0,0,1,11.56-2.18q12.89,0,21,8.72t8.15,24.44A41.69,41.69,0,0,1,516.09,240.28Z"/><path class="cls-1" d="M614.43,182.49a43,43,0,0,0-22.93-6.16,48.27,48.27,0,0,0-18.66,3.5A42.23,42.23,0,0,0,558.16,190a45,45,0,0,0-9.57,15.82,60.28,60.28,0,0,0-3.32,20.56q0,15,6.06,26.24A44.81,44.81,0,0,0,568,270.21a46.59,46.59,0,0,0,24.44,6.35,55.81,55.81,0,0,0,16.2-2.37,40.87,40.87,0,0,0,14.4-7.76,48.14,48.14,0,0,0,11.28-13.93l-14.4-8.91a32.75,32.75,0,0,1-7.2,9.57,25.4,25.4,0,0,1-9.29,5.31,36.55,36.55,0,0,1-11,1.61,28.19,28.19,0,0,1-14.59-3.79A26.06,26.06,0,0,1,567.72,245a38.47,38.47,0,0,1-3.53-14.3h71.65a18.17,18.17,0,0,0,.19-2.65v-2.47q0-14.78-5.78-25.86A43.07,43.07,0,0,0,614.43,182.49Zm-43.11,18.38a21.65,21.65,0,0,1,8.63-6.64,28.76,28.76,0,0,1,11.36-2.17A23.7,23.7,0,0,1,610,200.39q5.21,6,6.69,16.49H564.74a42.88,42.88,0,0,1,1.18-5.21A32.38,32.38,0,0,1,571.32,200.87Z"/><path class="cls-1" d="M698.18,176.33h-5.5a27.39,27.39,0,0,0-15.25,4.36Q670.7,185,666.53,194V178.22H648v96.26h18.56V223.13q0-12.31,6.26-19.71A20,20,0,0,1,688.7,196h9.48Z"/><path class="cls-1" d="M774.72,195.48c-.57-1-1.16-2-1.8-2.95a37.5,37.5,0,0,0-12.41-11.75q-7.57-4.46-18.19-4.45a42.41,42.41,0,0,0-17.52,3.6,40.79,40.79,0,0,0-14,10.33,48.54,48.54,0,0,0-9.29,15.82,58.83,58.83,0,0,0-3.31,20.27q0,14.78,5.77,26.05A44.27,44.27,0,0,0,719.78,270a41.31,41.31,0,0,0,22.54,6.34q10.62,0,18.29-4.45A36.3,36.3,0,0,0,773,260.17c.6-.92,1.16-1.87,1.7-2.84v17.15h18.57V141.84H774.72Zm-7.67,55.31a25.44,25.44,0,0,1-9.28,6.63,29.68,29.68,0,0,1-11.66,2.28q-12.89,0-21-8.81t-8.15-24.54a41.45,41.45,0,0,1,2.18-14,31.47,31.47,0,0,1,6.07-10.42,24.61,24.61,0,0,1,9.19-6.54,30.65,30.65,0,0,1,11.74-2.18q12.69,0,20.85,8.72t8.14,24.44A43.34,43.34,0,0,1,773,240.28,30,30,0,0,1,767.05,250.79Z"/><path class="cls-1" d="M860.93,176.33h-5.49a27.39,27.39,0,0,0-15.25,4.36Q833.46,185,829.29,194V178.22H810.72v96.26h18.57V223.13q0-12.31,6.25-19.71A20,20,0,0,1,851.46,196h9.47Z"/><path class="cls-1" d="M934.83,182.58a50.06,50.06,0,0,0-25.2-6.25,51.1,51.1,0,0,0-19.33,3.6,45.4,45.4,0,0,0-15.53,10.33,46.47,46.47,0,0,0-10.24,15.91,54.91,54.91,0,0,0-3.6,20.18q0,14.78,6.35,26.15a45.58,45.58,0,0,0,17.43,17.71,49.54,49.54,0,0,0,25.11,6.35,50,50,0,0,0,19.33-3.69,47.6,47.6,0,0,0,15.53-10.33,45.56,45.56,0,0,0,10.23-15.82,55.4,55.4,0,0,0,3.6-20.37q0-15-6.34-26.24A45.43,45.43,0,0,0,934.83,182.58Zm2.46,57.79A30.35,30.35,0,0,1,931,250.89a26.75,26.75,0,0,1-9.47,6.53,30.9,30.9,0,0,1-11.94,2.28,29,29,0,0,1-15.06-4A27.73,27.73,0,0,1,884,244.26q-3.9-7.48-3.89-17.91a41.45,41.45,0,0,1,2.18-14,30.66,30.66,0,0,1,6.16-10.42,25.2,25.2,0,0,1,9.47-6.54,31.62,31.62,0,0,1,11.75-2.18,29.76,29.76,0,0,1,15.44,4,28,28,0,0,1,10.61,11.37q3.89,7.4,3.89,17.81A40.7,40.7,0,0,1,937.29,240.37Z"/><path class="cls-1" d="M990.25,255.25q-2.37-2.94-2.37-8.44v-105H969.31V248a31.33,31.33,0,0,0,2.85,13.83,21.31,21.31,0,0,0,8.71,9.29,28.31,28.31,0,0,0,14.4,3.41h10.42v-16.3h-7.58C994.45,258.18,991.83,257.21,990.25,255.25Z"/><path class="cls-1" d="M1091.75,197.17a34.14,34.14,0,0,0-9.56-11.84,39.45,39.45,0,0,0-13.65-6.82,59.08,59.08,0,0,0-16.2-2.18,47.63,47.63,0,0,0-23.49,5.78,35.54,35.54,0,0,0-15.54,17.52L1027.9,208a23.06,23.06,0,0,1,9-11q6.15-4,15.06-4a32.54,32.54,0,0,1,12.41,2.28,19.32,19.32,0,0,1,9,7.39q3.42,5.12,3.42,13.45v10.73c-.65-.69-1.35-1.37-2.09-2q-8.91-7.76-25.77-7.76a54.5,54.5,0,0,0-19.7,3.41,31.05,31.05,0,0,0-14,10.13,28.27,28.27,0,0,0-.1,32.31,31.6,31.6,0,0,0,13.64,10.14,50.78,50.78,0,0,0,19.23,3.5q17.05,0,26.34-8.05a25.72,25.72,0,0,0,3.41-3.6v9.57h17.62V214.41A38.18,38.18,0,0,0,1091.75,197.17Zm-21.22,61q-6.81,4-17,4-10.43,0-17.34-4t-6.91-11.56a12.72,12.72,0,0,1,6.91-11.84q6.91-3.89,17.34-3.88,10.23,0,17,4a12.79,12.79,0,0,1,6.82,11.74Q1077.35,254.21,1070.53,258.18Z"/><path class="cls-2" d="M230.11,227.34a57.81,57.81,0,0,0,16.73,40.76c20.72,20.72,48.85,20.68,66.78,10.94,21.95-11.91,71.33-47.63,20.06-195.8C333.68,153.18,230.11,160.29,230.11,227.34Z"/><path class="cls-3" d="M277.27,144.47c-3.4-18.33-8.85-37.1-17-61.23,0,69.94-103.58,77.05-103.58,144.1A57.85,57.85,0,0,0,173.4,268.1c20.72,20.72,49.07,20.66,66.78,10.94C199,235.13,213.5,184.3,277.27,144.47Z"/><path class="cls-1" d="M203.85,144.47c-3.4-18.33-8.86-37.1-17-61.23,0,69.94-103.58,77.05-103.58,144.1,0,34.39,27.86,49.53,27.86,49.53A153.82,153.82,0,0,0,108.46,333l13.29-2.21c-6.5-22.6-2.51-47.21-2.1-49.62,17,6.81,34.53,4.79,47.11-2.11C125.52,235.13,140.08,184.31,203.85,144.47Z"/><path class="cls-1" d="M468.44,359.17l-45.28-62.72H405V429.28h19.51v-100q3,4,5.31,7.11l4.74,6.54,31.83,43.77H470l32-44.16q3.79-5.3,9.66-13.26v100h19.52V296.45H513Z"/><polygon class="cls-1" points="576.06 319.19 594.25 319.19 613.58 293.23 592.55 293.23 576.06 319.19"/><path class="cls-1" d="M609.41,408a25.44,25.44,0,0,1-9.28,5.31,36.55,36.55,0,0,1-11,1.61,28.19,28.19,0,0,1-14.59-3.79,26,26,0,0,1-10.14-11.28,38.47,38.47,0,0,1-3.53-14.3h71.65a19.78,19.78,0,0,0,.18-2.65v-2.47q0-14.77-5.77-25.86a42.17,42.17,0,0,0-38.75-23.4,48.27,48.27,0,0,0-18.66,3.5,42.36,42.36,0,0,0-14.69,10.14,45,45,0,0,0-9.57,15.82A60.29,60.29,0,0,0,542,381.15q0,15,6.06,26.24A44.67,44.67,0,0,0,564.7,425a46.59,46.59,0,0,0,24.44,6.35,55.81,55.81,0,0,0,16.2-2.37,41,41,0,0,0,14.4-7.76A48.11,48.11,0,0,0,631,407.3l-14.4-8.91A32.41,32.41,0,0,1,609.41,408ZM568,355.66a21.75,21.75,0,0,1,8.62-6.63A28.77,28.77,0,0,1,588,346.86a23.66,23.66,0,0,1,18.66,8.33q5.22,6,6.7,16.48H561.43a41.88,41.88,0,0,1,1.18-5.21A32.2,32.2,0,0,1,568,355.66Z"/><path class="cls-1" d="M725.47,333H703.88l-15.17,19.71q-2.46,3.4-4.63,6.25c-1.46,1.89-3.13,4-5,6.44-1.89-2.39-3.53-4.55-4.92-6.44s-2.91-4-4.55-6.25L654.42,333H632.25l35.53,47.42-37,48.84h21.6L669,407.68q2.65-3.4,4.74-6.35c1.39-2,3-4.07,4.93-6.35,1.76,2.28,3.37,4.39,4.82,6.35s3,4.08,4.65,6.35l16.67,21.6H727L690,380Z"/><path class="cls-1" d="M792.43,356.33a27.19,27.19,0,0,1,9.19-6.35,28.06,28.06,0,0,1,10.9-2.18A30.69,30.69,0,0,1,829,352.26q7.2,4.44,11.37,15.25l15.92-7.58a41.55,41.55,0,0,0-10.71-16.77A42.7,42.7,0,0,0,830.23,334a55.22,55.22,0,0,0-17.71-2.84,48.49,48.49,0,0,0-18.86,3.6A45.93,45.93,0,0,0,778.5,345a45.35,45.35,0,0,0-10,15.82,56.92,56.92,0,0,0-3.5,20.37q0,14.78,6.16,26.05a44.91,44.91,0,0,0,17,17.62,47.29,47.29,0,0,0,24.45,6.35,55.22,55.22,0,0,0,17.71-2.84,42.1,42.1,0,0,0,15.35-9.28,42.61,42.61,0,0,0,10.71-16.68l-15.92-7.58Q836.2,405.41,829,410a30.23,30.23,0,0,1-16.48,4.55,28,28,0,0,1-14.31-3.79,27,27,0,0,1-10.42-11.28q-3.88-7.47-3.89-18.28a41.93,41.93,0,0,1,2.28-14.4A29.35,29.35,0,0,1,792.43,356.33Z"/><path class="cls-1" d="M935.79,337.38a50.06,50.06,0,0,0-25.2-6.25,51.07,51.07,0,0,0-19.33,3.6,45.55,45.55,0,0,0-15.54,10.32A46.64,46.64,0,0,0,865.49,361a54.91,54.91,0,0,0-3.6,20.18q0,14.78,6.35,26.15A45.52,45.52,0,0,0,885.67,425a52.65,52.65,0,0,0,44.43,2.66,47.54,47.54,0,0,0,15.54-10.33,45.56,45.56,0,0,0,10.23-15.82,55.4,55.4,0,0,0,3.6-20.37q0-15-6.35-26.24A45.34,45.34,0,0,0,935.79,337.38Zm2.46,57.79A30.51,30.51,0,0,1,932,405.69a26.94,26.94,0,0,1-9.48,6.54,31,31,0,0,1-11.93,2.27,29.06,29.06,0,0,1-15.07-4,27.86,27.86,0,0,1-10.61-11.46Q881,391.58,881,381.15a41.16,41.16,0,0,1,2.18-14,30.25,30.25,0,0,1,6.16-10.42,25.24,25.24,0,0,1,9.47-6.54A31.62,31.62,0,0,1,910.59,348,29.81,29.81,0,0,1,926,352a28,28,0,0,1,10.61,11.37q3.87,7.4,3.88,17.81A40.71,40.71,0,0,1,938.25,395.17Z"/><rect class="cls-1" x="735.59" y="333.02" width="18.57" height="96.25"/><path class="cls-1" d="M753.87,295.6a13.34,13.34,0,0,0-9.09-3.32,13,13,0,0,0-9,3.32,11.46,11.46,0,0,0-3.7,9,11.22,11.22,0,0,0,3.7,8.81,13,13,0,0,0,9,3.32,13.34,13.34,0,0,0,9.09-3.32,11.1,11.1,0,0,0,3.8-8.81A11.34,11.34,0,0,0,753.87,295.6Z"/><rect class="cls-4" width="1178.6" height="514.61"/></svg>